<svg width="20" height="20" viewBox="0 0 20 20" fill="none" xmlns="http://www.w3.org/2000/svg">
<path d="M2.5013 3.33332C2.04106 3.33332 1.66797 3.70642 1.66797 4.16666C1.66797 4.62689 2.04106 4.99999 2.5013 4.99999H3.33464C3.75191 4.99999 4.09755 5.30668 4.15845 5.70694L4.39086 9.4265C4.52808 11.6225 6.34913 13.3333 8.54942 13.3333H15.8346C16.2949 13.3333 16.668 12.9602 16.668 12.5C16.668 12.0398 16.2949 11.6667 15.8346 11.6667H8.54942C7.22924 11.6667 6.13661 10.6402 6.05428 9.32256L5.88833 6.66666H7.5013C7.96154 6.66666 8.33463 6.29356 8.33463 5.83332C8.33463 5.37309 7.96154 4.99999 7.5013 4.99999H5.69238C5.34918 4.029 4.42315 3.33332 3.33464 3.33332H2.5013Z" fill="white"/>
<path d="M9.16797 16.6667C9.16797 17.5871 8.42178 18.3333 7.5013 18.3333C6.58083 18.3333 5.83463 17.5871 5.83463 16.6667C5.83463 15.7462 6.58083 15 7.5013 15C8.42178 15 9.16797 15.7462 9.16797 16.6667Z" fill="white"/>
<path d="M12.5013 18.3333C13.4218 18.3333 14.168 17.5871 14.168 16.6667C14.168 15.7462 13.4218 15 12.5013 15C11.5808 15 10.8346 15.7462 10.8346 16.6667C10.8346 17.5871 11.5808 18.3333 12.5013 18.3333Z" fill="white"/>
<path fill-rule="evenodd" clip-rule="evenodd" d="M18.3346 5.83332C18.3346 8.13451 16.4692 9.99999 14.168 9.99999C11.8668 9.99999 10.0013 8.13451 10.0013 5.83332C10.0013 3.53214 11.8668 1.66666 14.168 1.66666C16.4692 1.66666 18.3346 3.53214 18.3346 5.83332ZM16.4596 5.83332C16.4596 6.1785 16.1798 6.45832 15.8346 6.45832H14.793V7.49999C14.793 7.84517 14.5131 8.12499 14.168 8.12499C13.8228 8.12499 13.543 7.84517 13.543 7.49999V6.45832H12.5013C12.1561 6.45832 11.8763 6.1785 11.8763 5.83332C11.8763 5.48814 12.1561 5.20832 12.5013 5.20832H13.543V4.16666C13.543 3.82148 13.8228 3.54166 14.168 3.54166C14.5131 3.54166 14.793 3.82148 14.793 4.16666V5.20832H15.8346C16.1798 5.20832 16.4596 5.48814 16.4596 5.83332Z" fill="white"/>
</svg>
