<svg width="65" height="64" viewBox="0 0 65 64" fill="none" xmlns="http://www.w3.org/2000/svg">
<rect x="0.353516" width="64" height="64" rx="32" fill="#F8F2FD"/>
<path d="M33.3535 32.6264V26.7978C33.3535 25.3989 34.3535 24 36.3535 24C38.3535 24 39.3535 25.3989 39.3535 26.7978V37.9888" stroke="#B97DE9" stroke-width="1.5"/>
<path d="M25.3535 40.7856H33.2965C33.328 40.7856 33.3535 40.7623 33.3535 40.7325V32.9776C33.3535 29.5643 30.3865 26.7969 26.726 26.7969C25.9642 26.7969 25.2335 27.0791 24.6949 27.5815C24.1562 28.0839 23.8535 28.7652 23.8535 29.4757V35.6564M36.7285 37.9879H41.9785L42.3535 40.7856H36.3535L36.7285 37.9879Z" stroke="#B97DE9" stroke-width="1.5" stroke-linecap="round" stroke-linejoin="round"/>
<path d="M25.3535 40.7869C27.0104 40.7869 28.3535 39.5343 28.3535 37.9892C28.3535 36.444 27.0104 35.1914 25.3535 35.1914C23.6967 35.1914 22.3535 36.444 22.3535 37.9892C22.3535 39.5343 23.6967 40.7869 25.3535 40.7869Z" stroke="#B97DE9" stroke-width="1.5"/>
<path d="M27.3535 26.7969V35.6564" stroke="#B97DE9" stroke-width="1.5" stroke-linecap="round" stroke-linejoin="round"/>
</svg>
