<svg width="20" height="21" viewBox="0 0 20 21" fill="none" xmlns="http://www.w3.org/2000/svg">
<path d="M8.33268 8.83335C8.79292 8.83335 9.16602 9.20645 9.16602 9.66669V14.6667C9.16602 15.1269 8.79292 15.5 8.33268 15.5C7.87245 15.5 7.49935 15.1269 7.49935 14.6667V9.66669C7.49935 9.20645 7.87245 8.83335 8.33268 8.83335Z" fill="#240E00" fill-opacity="0.8"/>
<path d="M12.4993 9.66669C12.4993 9.20645 12.1263 8.83335 11.666 8.83335C11.2058 8.83335 10.8327 9.20645 10.8327 9.66669V14.6667C10.8327 15.1269 11.2058 15.5 11.666 15.5C12.1263 15.5 12.4993 15.1269 12.4993 14.6667V9.66669Z" fill="#240E00" fill-opacity="0.8"/>
<path fill-rule="evenodd" clip-rule="evenodd" d="M14.0827 5.50002C13.6966 3.59815 12.0151 2.16669 9.99935 2.16669C7.98355 2.16669 6.30209 3.59815 5.91603 5.50002H2.49935C2.03911 5.50002 1.66602 5.87312 1.66602 6.33335C1.66602 6.79359 2.03911 7.16669 2.49935 7.16669H3.39008L3.947 14.9636C4.10275 17.144 5.91709 18.8334 8.10308 18.8334H11.8956C14.0816 18.8334 15.896 17.144 16.0517 14.9636L16.6086 7.16669H17.4993C17.9596 7.16669 18.3327 6.79359 18.3327 6.33335C18.3327 5.87312 17.9596 5.50002 17.4993 5.50002H14.0827ZM9.99935 3.83335C8.91083 3.83335 7.9848 4.52903 7.6416 5.50002H12.3571C12.0139 4.52903 11.0879 3.83335 9.99935 3.83335ZM14.9377 7.16669H5.061L5.60943 14.8448C5.70288 16.1531 6.79148 17.1667 8.10308 17.1667H11.8956C13.2072 17.1667 14.2958 16.1531 14.3893 14.8448L14.9377 7.16669Z" fill="#240E00" fill-opacity="0.8"/>
</svg>
