<svg width="65" height="64" viewBox="0 0 65 64" fill="none" xmlns="http://www.w3.org/2000/svg">
<rect x="0.353516" width="64" height="64" rx="32" fill="#FFF9E6"/>
<path d="M38.3535 27H39.3535M22.3535 31L23.1435 33.584C23.2686 33.9936 23.5219 34.3523 23.8661 34.6072C24.2103 34.8621 24.6272 34.9998 25.0555 35H26.3535M42.3535 31L41.5635 33.584C41.4384 33.9936 41.1852 34.3523 40.841 34.6072C40.4968 34.8621 40.0798 34.9998 39.6515 35H38.3535M29.8535 34.5C29.8535 34.5 29.8535 41.5 26.3535 41.5M34.8535 34.5C34.8535 34.5 34.8535 41.5 38.3535 41.5M32.3535 34.5V41.5M42.3535 23.6V31H22.3535V23.6C22.3535 23.4409 22.4167 23.2883 22.5293 23.1757C22.6418 23.0632 22.7944 23 22.9535 23H41.7535C41.9126 23 42.0653 23.0632 42.1778 23.1757C42.2903 23.2883 42.3535 23.4409 42.3535 23.6V23.6Z" stroke="#FDBA00" stroke-width="1.5" stroke-linecap="round" stroke-linejoin="round"/>
</svg>
