<svg width="64" height="64" viewBox="0 0 64 64" fill="none" xmlns="http://www.w3.org/2000/svg">
<rect width="64" height="64" rx="32" fill="#F0F0F0"/>
<path d="M24 26C24 25.4477 24.4477 25 25 25H39C39.5523 25 40 25.4477 40 26C40 26.5523 39.5523 27 39 27H25C24.4477 27 24 26.5523 24 26Z" fill="#331400"/>
<path d="M24 32C24 31.4477 24.4477 31 25 31H39C39.5523 31 40 31.4477 40 32C40 32.5523 39.5523 33 39 33H25C24.4477 33 24 32.5523 24 32Z" fill="#331400"/>
<path d="M25 37C24.4477 37 24 37.4477 24 38C24 38.5523 24.4477 39 25 39H39C39.5523 39 40 38.5523 40 38C40 37.4477 39.5523 37 39 37H25Z" fill="#331400"/>
</svg>
