<svg width="64" height="64" viewBox="0 0 64 64" fill="none" xmlns="http://www.w3.org/2000/svg">
<rect width="64" height="64" rx="32" fill="#F2FDF5"/>
<path d="M37.5501 22.25H26.4551C25.6267 22.25 24.9551 22.9216 24.9551 23.75V39.04C24.9551 39.8684 25.6267 40.54 26.4551 40.54H37.5501C38.3785 40.54 39.0501 39.8684 39.0501 39.04V23.75C39.0501 22.9216 38.3785 22.25 37.5501 22.25Z" stroke="#1EB91E" stroke-width="1.5" stroke-linecap="round" stroke-linejoin="round"/>
<path d="M24.9551 29.8445H39.0451M27.7351 27.9245V24.8945M27.7351 34.5795V31.5495M26.3201 40.5395V41.0645C26.3201 41.2453 26.3916 41.4188 26.5189 41.5471C26.6463 41.6755 26.8193 41.7482 27.0001 41.7495H28.2351C28.4168 41.7495 28.591 41.6774 28.7194 41.5489C28.8479 41.4204 28.9201 41.2462 28.9201 41.0645V40.5395M35.0751 40.5395V41.0645C35.0751 41.2462 35.1472 41.4204 35.2757 41.5489C35.4042 41.6774 35.5784 41.7495 35.7601 41.7495H37.0001C37.1818 41.7495 37.356 41.6774 37.4844 41.5489C37.6129 41.4204 37.6851 41.2462 37.6851 41.0645V40.5395" stroke="#1EB91E" stroke-linecap="round" stroke-linejoin="round"/>
</svg>
