<svg width="65" height="64" viewBox="0 0 65 64" fill="none" xmlns="http://www.w3.org/2000/svg">
<rect x="0.353516" width="64" height="64" rx="32" fill="#FF800B" fill-opacity="0.1"/>
<g clip-path="url(#clip0_2_28851)">
<path d="M36.8535 21.5C37.2513 21.5 37.6329 21.658 37.9142 21.9393C38.1955 22.2206 38.3535 22.6022 38.3535 23V41C38.3535 41.3978 38.1955 41.7794 37.9142 42.0607C37.6329 42.342 37.2513 42.5 36.8535 42.5H27.8535C27.4557 42.5 27.0742 42.342 26.7929 42.0607C26.5116 41.7794 26.3535 41.3978 26.3535 41V23C26.3535 22.6022 26.5116 22.2206 26.7929 21.9393C27.0742 21.658 27.4557 21.5 27.8535 21.5H36.8535ZM27.8535 20C27.0579 20 26.2948 20.3161 25.7322 20.8787C25.1696 21.4413 24.8535 22.2044 24.8535 23V41C24.8535 41.7957 25.1696 42.5587 25.7322 43.1213C26.2948 43.6839 27.0579 44 27.8535 44H36.8535C37.6492 44 38.4122 43.6839 38.9748 43.1213C39.5374 42.5587 39.8535 41.7957 39.8535 41V23C39.8535 22.2044 39.5374 21.4413 38.9748 20.8787C38.4122 20.3161 37.6492 20 36.8535 20H27.8535Z" fill="#D55200"/>
<path d="M32.5189 41.6667C32.7399 41.6667 32.9519 41.5789 33.1081 41.4226C33.2644 41.2663 33.3522 41.0543 33.3522 40.8333C33.3522 40.6123 33.2644 40.4004 33.1081 40.2441C32.9519 40.0878 32.7399 40 32.5189 40C32.2979 40 32.0859 40.0878 31.9296 40.2441C31.7733 40.4004 31.6855 40.6123 31.6855 40.8333C31.6855 41.0543 31.7733 41.2663 31.9296 41.4226C32.0859 41.5789 32.2979 41.6667 32.5189 41.6667Z" fill="#D55200"/>
</g>
<defs>
<clipPath id="clip0_2_28851">
<rect width="24" height="24" fill="white" transform="translate(20.3535 20)"/>
</clipPath>
</defs>
</svg>
