<svg width="160" height="46" viewBox="0 0 160 46" fill="none" xmlns="http://www.w3.org/2000/svg">
<rect x="0.5" y="0.5" width="159" height="45" rx="5.5" fill="white"/>
<rect x="0.5" y="0.5" width="159" height="45" rx="5.5" stroke="#1EB91E"/>
<path d="M33.4604 29V17.896H34.9644V29H33.4604ZM40.6284 29V17.896H42.1324V29H40.6284ZM34.4844 23.944V22.568H40.9964V23.944H34.4844ZM47.7333 29.16C47.04 29.16 46.4106 28.9893 45.8453 28.648C45.28 28.296 44.832 27.8213 44.5013 27.224C44.1813 26.6267 44.0213 25.9547 44.0213 25.208C44.0213 24.4613 44.1813 23.7893 44.5013 23.192C44.832 22.5947 45.2746 22.12 45.8293 21.768C46.3946 21.416 47.0293 21.24 47.7333 21.24C48.3093 21.24 48.8213 21.3627 49.2693 21.608C49.728 21.8427 50.096 22.1733 50.3733 22.6C50.6506 23.016 50.8053 23.5013 50.8373 24.056V26.344C50.8053 26.888 50.6506 27.3733 50.3733 27.8C50.1066 28.2267 49.744 28.5627 49.2853 28.808C48.8373 29.0427 48.32 29.16 47.7333 29.16ZM47.9733 27.8C48.688 27.8 49.264 27.56 49.7013 27.08C50.1386 26.5893 50.3573 25.9653 50.3573 25.208C50.3573 24.6853 50.256 24.232 50.0533 23.848C49.8613 23.4533 49.584 23.1493 49.2213 22.936C48.8586 22.712 48.4373 22.6 47.9573 22.6C47.4773 22.6 47.0506 22.712 46.6773 22.936C46.3146 23.16 46.0266 23.4693 45.8133 23.864C45.6106 24.248 45.5093 24.6907 45.5093 25.192C45.5093 25.704 45.6106 26.1573 45.8133 26.552C46.0266 26.936 46.32 27.24 46.6933 27.464C47.0666 27.688 47.4933 27.8 47.9733 27.8ZM50.2613 29V26.952L50.5333 25.096L50.2613 23.256V21.4H51.7173V29H50.2613ZM53.8138 29V21.4H55.2538V29H53.8138ZM58.9498 29V24.408C58.9498 23.8427 58.7738 23.4 58.4218 23.08C58.0805 22.7493 57.6485 22.584 57.1258 22.584C56.7738 22.584 56.4591 22.6587 56.1818 22.808C55.9045 22.9573 55.6805 23.1653 55.5098 23.432C55.3391 23.6987 55.2538 24.0187 55.2538 24.392L54.6618 24.104C54.6618 23.528 54.7845 23.0267 55.0298 22.6C55.2858 22.1733 55.6325 21.8427 56.0698 21.608C56.5071 21.3627 56.9978 21.24 57.5418 21.24C58.0751 21.24 58.5551 21.3573 58.9818 21.592C59.4191 21.8267 59.7605 22.1573 60.0058 22.584C60.2618 23.0107 60.3898 23.5173 60.3898 24.104V29H58.9498ZM64.0858 29V24.408C64.0858 23.8427 63.9098 23.4 63.5578 23.08C63.2165 22.7493 62.7898 22.584 62.2778 22.584C61.9258 22.584 61.6058 22.6587 61.3178 22.808C61.0405 22.9573 60.8165 23.1653 60.6458 23.432C60.4751 23.6987 60.3898 24.0187 60.3898 24.392L59.5738 24.104C59.6058 23.5173 59.7605 23.016 60.0378 22.6C60.3258 22.1733 60.6938 21.8427 61.1418 21.608C61.5898 21.3627 62.0805 21.24 62.6138 21.24C63.1685 21.24 63.6645 21.3573 64.1018 21.592C64.5391 21.8267 64.8858 22.1573 65.1418 22.584C65.4085 23.0107 65.5418 23.5227 65.5418 24.12V29H64.0858ZM67.5013 29V21.4H68.9413V29H67.5013ZM72.6373 29V24.408C72.6373 23.8427 72.4613 23.4 72.1093 23.08C71.768 22.7493 71.336 22.584 70.8133 22.584C70.4613 22.584 70.1466 22.6587 69.8693 22.808C69.592 22.9573 69.368 23.1653 69.1973 23.432C69.0266 23.6987 68.9413 24.0187 68.9413 24.392L68.3493 24.104C68.3493 23.528 68.472 23.0267 68.7173 22.6C68.9733 22.1733 69.32 21.8427 69.7573 21.608C70.1946 21.3627 70.6853 21.24 71.2293 21.24C71.7626 21.24 72.2426 21.3573 72.6693 21.592C73.1066 21.8267 73.448 22.1573 73.6933 22.584C73.9493 23.0107 74.0773 23.5173 74.0773 24.104V29H72.6373ZM77.7733 29V24.408C77.7733 23.8427 77.5973 23.4 77.2453 23.08C76.904 22.7493 76.4773 22.584 75.9653 22.584C75.6133 22.584 75.2933 22.6587 75.0053 22.808C74.728 22.9573 74.504 23.1653 74.3333 23.432C74.1626 23.6987 74.0773 24.0187 74.0773 24.392L73.2613 24.104C73.2933 23.5173 73.448 23.016 73.7253 22.6C74.0133 22.1733 74.3813 21.8427 74.8293 21.608C75.2773 21.3627 75.768 21.24 76.3013 21.24C76.856 21.24 77.352 21.3573 77.7893 21.592C78.2266 21.8267 78.5733 22.1573 78.8293 22.584C79.096 23.0107 79.2293 23.5227 79.2293 24.12V29H77.7733ZM84.4208 29.16C83.7275 29.16 83.0981 28.9893 82.5328 28.648C81.9675 28.296 81.5195 27.8213 81.1888 27.224C80.8688 26.6267 80.7088 25.9547 80.7088 25.208C80.7088 24.4613 80.8688 23.7893 81.1888 23.192C81.5195 22.5947 81.9621 22.12 82.5168 21.768C83.0821 21.416 83.7168 21.24 84.4208 21.24C84.9968 21.24 85.5088 21.3627 85.9568 21.608C86.4155 21.8427 86.7835 22.1733 87.0608 22.6C87.3381 23.016 87.4928 23.5013 87.5248 24.056V26.344C87.4928 26.888 87.3381 27.3733 87.0608 27.8C86.7941 28.2267 86.4315 28.5627 85.9728 28.808C85.5248 29.0427 85.0075 29.16 84.4208 29.16ZM84.6608 27.8C85.3755 27.8 85.9515 27.56 86.3888 27.08C86.8261 26.5893 87.0448 25.9653 87.0448 25.208C87.0448 24.6853 86.9435 24.232 86.7408 23.848C86.5488 23.4533 86.2715 23.1493 85.9088 22.936C85.5461 22.712 85.1248 22.6 84.6448 22.6C84.1648 22.6 83.7381 22.712 83.3648 22.936C83.0021 23.16 82.7141 23.4693 82.5008 23.864C82.2981 24.248 82.1968 24.6907 82.1968 25.192C82.1968 25.704 82.2981 26.1573 82.5008 26.552C82.7141 26.936 83.0075 27.24 83.3808 27.464C83.7541 27.688 84.1808 27.8 84.6608 27.8ZM86.9488 29V26.952L87.2208 25.096L86.9488 23.256V21.4H88.4048V29H86.9488ZM92.9173 29.16C92.4906 29.16 92.0853 29.1067 91.7013 29C91.328 28.8827 90.9813 28.7227 90.6613 28.52C90.3413 28.3067 90.064 28.056 89.8293 27.768L90.7573 26.84C91.0346 27.1813 91.3546 27.4373 91.7173 27.608C92.08 27.768 92.4853 27.848 92.9333 27.848C93.3813 27.848 93.728 27.7733 93.9733 27.624C94.2186 27.464 94.3413 27.2453 94.3413 26.968C94.3413 26.6907 94.24 26.4773 94.0373 26.328C93.8453 26.168 93.5946 26.04 93.2853 25.944C92.976 25.8373 92.6453 25.736 92.2933 25.64C91.952 25.5333 91.6266 25.4 91.3173 25.24C91.008 25.08 90.752 24.8613 90.5493 24.584C90.3573 24.3067 90.2613 23.9387 90.2613 23.48C90.2613 23.0213 90.3733 22.6267 90.5973 22.296C90.8213 21.9547 91.1306 21.6933 91.5253 21.512C91.9306 21.3307 92.416 21.24 92.9813 21.24C93.5786 21.24 94.1066 21.3467 94.5653 21.56C95.0346 21.7627 95.4186 22.072 95.7173 22.488L94.7893 23.416C94.576 23.1387 94.3093 22.9253 93.9893 22.776C93.68 22.6267 93.328 22.552 92.9333 22.552C92.5173 22.552 92.1973 22.6267 91.9733 22.776C91.76 22.9147 91.6533 23.112 91.6533 23.368C91.6533 23.624 91.7493 23.8213 91.9413 23.96C92.1333 24.0987 92.384 24.216 92.6933 24.312C93.0133 24.408 93.344 24.5093 93.6853 24.616C94.0266 24.712 94.352 24.8453 94.6613 25.016C94.9706 25.1867 95.2213 25.416 95.4133 25.704C95.616 25.992 95.7173 26.3707 95.7173 26.84C95.7173 27.5547 95.4613 28.12 94.9493 28.536C94.448 28.952 93.7706 29.16 92.9173 29.16ZM97.3454 29V21.4H98.7854V29H97.3454ZM98.0654 19.88C97.7988 19.88 97.5801 19.7947 97.4094 19.624C97.2388 19.4427 97.1534 19.2187 97.1534 18.952C97.1534 18.696 97.2388 18.4827 97.4094 18.312C97.5801 18.1307 97.7988 18.04 98.0654 18.04C98.3321 18.04 98.5508 18.1307 98.7214 18.312C98.8921 18.4827 98.9774 18.696 98.9774 18.952C98.9774 19.2187 98.8921 19.4427 98.7214 19.624C98.5508 19.7947 98.3321 19.88 98.0654 19.88Z" fill="#1EB91E"/>
<path d="M131.911 25.7441C131.586 26.0696 131.586 26.5972 131.911 26.9226C132.237 27.2481 132.765 27.2481 133.09 26.9226L136.423 23.5893C136.749 23.2639 136.749 22.7362 136.423 22.4108L133.09 19.0775C132.765 18.752 132.237 18.752 131.911 19.0775C131.586 19.4029 131.586 19.9305 131.911 20.256L133.822 22.1667H124.167C123.707 22.1667 123.334 22.5398 123.334 23C123.334 23.4603 123.707 23.8334 124.167 23.8334H133.822L131.911 25.7441Z" fill="#1EB91E"/>
</svg>
