<svg width="400" height="46" viewBox="0 0 400 46" fill="none" xmlns="http://www.w3.org/2000/svg">
<rect width="400" height="46" rx="6" fill="#F0F0F0"/>
<path opacity="0.4" d="M30.54 27.3555C30.476 27.3555 30.416 27.3315 30.36 27.2835C30.312 27.2355 30.288 27.1795 30.288 27.1155C30.288 27.0835 30.292 27.0555 30.3 27.0315C30.316 26.9995 30.328 26.9755 30.336 26.9595L33.084 23.0835L30.468 19.3515C30.444 19.3035 30.432 19.2515 30.432 19.1955C30.432 19.1315 30.456 19.0755 30.504 19.0275C30.552 18.9795 30.608 18.9555 30.672 18.9555H31.392C31.472 18.9555 31.536 18.9755 31.584 19.0155C31.632 19.0475 31.676 19.0955 31.716 19.1595L33.828 22.1595L35.928 19.1595C35.96 19.0955 36 19.0475 36.048 19.0155C36.104 18.9755 36.168 18.9555 36.24 18.9555H36.924C36.988 18.9555 37.044 18.9795 37.092 19.0275C37.14 19.0755 37.164 19.1315 37.164 19.1955C37.164 19.2515 37.148 19.3035 37.116 19.3515L34.536 23.0955L37.272 26.9595C37.288 26.9755 37.3 26.9995 37.308 27.0315C37.316 27.0555 37.32 27.0835 37.32 27.1155C37.32 27.1795 37.296 27.2355 37.248 27.2835C37.2 27.3315 37.14 27.3555 37.068 27.3555H36.336C36.264 27.3555 36.2 27.3355 36.144 27.2955C36.096 27.2555 36.052 27.2115 36.012 27.1635L33.78 24.0435L31.56 27.1635C31.52 27.2115 31.476 27.2555 31.428 27.2955C31.38 27.3355 31.316 27.3555 31.236 27.3555H30.54ZM41.0378 27.4755C40.4298 27.4755 39.9218 27.3595 39.5138 27.1275C39.1058 26.8955 38.7938 26.5755 38.5778 26.1675C38.3618 25.7515 38.2418 25.2795 38.2178 24.7515C38.2098 24.6155 38.2058 24.4435 38.2058 24.2355C38.2058 24.0195 38.2098 23.8475 38.2178 23.7195C38.2418 23.1835 38.3618 22.7115 38.5778 22.3035C38.8018 21.8955 39.1178 21.5755 39.5258 21.3435C39.9338 21.1115 40.4378 20.9955 41.0378 20.9955C41.6378 20.9955 42.1418 21.1115 42.5498 21.3435C42.9578 21.5755 43.2698 21.8955 43.4858 22.3035C43.7098 22.7115 43.8338 23.1835 43.8578 23.7195C43.8658 23.8475 43.8698 24.0195 43.8698 24.2355C43.8698 24.4435 43.8658 24.6155 43.8578 24.7515C43.8338 25.2795 43.7138 25.7515 43.4978 26.1675C43.2818 26.5755 42.9698 26.8955 42.5618 27.1275C42.1538 27.3595 41.6458 27.4755 41.0378 27.4755ZM41.0378 26.5515C41.5338 26.5515 41.9298 26.3955 42.2258 26.0835C42.5218 25.7635 42.6818 25.2995 42.7058 24.6915C42.7138 24.5715 42.7178 24.4195 42.7178 24.2355C42.7178 24.0515 42.7138 23.8995 42.7058 23.7795C42.6818 23.1715 42.5218 22.7115 42.2258 22.3995C41.9298 22.0795 41.5338 21.9195 41.0378 21.9195C40.5418 21.9195 40.1418 22.0795 39.8378 22.3995C39.5418 22.7115 39.3858 23.1715 39.3698 23.7795C39.3618 23.8995 39.3577 24.0515 39.3577 24.2355C39.3577 24.4195 39.3618 24.5715 39.3698 24.6915C39.3858 25.2995 39.5418 25.7635 39.8378 26.0835C40.1418 26.3955 40.5418 26.5515 41.0378 26.5515ZM49.3084 27.3555C49.2204 27.3555 49.1524 27.3315 49.1044 27.2835C49.0564 27.2275 49.0324 27.1595 49.0324 27.0795V24.8235C48.8164 25.0235 48.5524 25.1715 48.2404 25.2675C47.9364 25.3555 47.5884 25.3995 47.1964 25.3995C46.4924 25.3995 45.9444 25.2435 45.5524 24.9315C45.1684 24.6195 44.9764 24.1155 44.9764 23.4195V21.3915C44.9764 21.3115 45.0004 21.2475 45.0484 21.1995C45.1044 21.1435 45.1724 21.1155 45.2524 21.1155H45.8404C45.9204 21.1155 45.9844 21.1435 46.0324 21.1995C46.0884 21.2475 46.1164 21.3115 46.1164 21.3915V23.3475C46.1164 23.7075 46.2204 23.9715 46.4284 24.1395C46.6444 24.3075 46.9724 24.3915 47.4124 24.3915C47.9004 24.3915 48.2924 24.3315 48.5884 24.2115C48.8844 24.0835 49.0324 23.8595 49.0324 23.5395V21.3915C49.0324 21.3115 49.0564 21.2475 49.1044 21.1995C49.1524 21.1435 49.2204 21.1155 49.3084 21.1155H49.9084C49.9884 21.1155 50.0524 21.1435 50.1004 21.1995C50.1564 21.2475 50.1844 21.3115 50.1844 21.3915V27.0795C50.1844 27.1595 50.1564 27.2275 50.1004 27.2835C50.0524 27.3315 49.9884 27.3555 49.9084 27.3555H49.3084ZM52.258 29.6355C52.17 29.6355 52.102 29.6075 52.054 29.5515C52.006 29.5035 51.982 29.4395 51.982 29.3595V28.9515C51.982 28.8715 52.006 28.8035 52.054 28.7475C52.102 28.6995 52.17 28.6755 52.258 28.6755H52.57C52.754 28.6755 52.902 28.6395 53.014 28.5675C53.126 28.4955 53.226 28.3715 53.314 28.1955C53.41 28.0275 53.522 27.7955 53.65 27.4995L56.254 21.3195C56.278 21.2555 56.31 21.2075 56.35 21.1755C56.398 21.1355 56.466 21.1155 56.554 21.1155H57.082C57.154 21.1155 57.214 21.1395 57.262 21.1875C57.31 21.2355 57.334 21.2915 57.334 21.3555C57.334 21.3875 57.33 21.4195 57.322 21.4515C57.314 21.4755 57.298 21.5155 57.274 21.5715L54.994 26.9715C54.874 27.2595 54.742 27.5595 54.598 27.8715C54.462 28.1835 54.306 28.4715 54.13 28.7355C53.962 29.0075 53.762 29.2235 53.53 29.3835C53.298 29.5515 53.026 29.6355 52.714 29.6355H52.258ZM53.926 27.1755L51.502 21.5715C51.462 21.4755 51.442 21.4075 51.442 21.3675C51.45 21.2955 51.478 21.2355 51.526 21.1875C51.574 21.1395 51.63 21.1155 51.694 21.1155H52.258C52.346 21.1155 52.41 21.1355 52.45 21.1755C52.498 21.2155 52.534 21.2635 52.558 21.3195L54.55 26.0835L53.926 27.1755ZM61.7617 27.3555C61.6817 27.3555 61.6137 27.3315 61.5577 27.2835C61.5097 27.2275 61.4857 27.1595 61.4857 27.0795V21.3915C61.4857 21.3115 61.5097 21.2475 61.5577 21.1995C61.6137 21.1435 61.6817 21.1155 61.7617 21.1155H62.3257C62.4057 21.1155 62.4697 21.1435 62.5177 21.1995C62.5737 21.2475 62.6017 21.3115 62.6017 21.3915V23.6955H63.6937L65.3137 21.2955C65.3537 21.2395 65.3977 21.1955 65.4457 21.1635C65.4937 21.1315 65.5577 21.1155 65.6377 21.1155H66.2617C66.3337 21.1155 66.3937 21.1315 66.4417 21.1635C66.4897 21.1955 66.5137 21.2435 66.5137 21.3075C66.5137 21.3235 66.5057 21.3475 66.4897 21.3795C66.4817 21.4035 66.4697 21.4275 66.4537 21.4515L64.6537 24.1035L66.6937 27.0075C66.7337 27.0555 66.7537 27.1075 66.7537 27.1635C66.7537 27.2275 66.7297 27.2755 66.6817 27.3075C66.6417 27.3395 66.5857 27.3555 66.5137 27.3555H65.7817C65.7097 27.3555 65.6497 27.3395 65.6017 27.3075C65.5537 27.2755 65.5097 27.2315 65.4697 27.1755L63.7057 24.6675H62.6017V27.0795C62.6017 27.1595 62.5737 27.2275 62.5177 27.2835C62.4697 27.3315 62.4057 27.3555 62.3257 27.3555H61.7617ZM68.2073 29.6355C68.1193 29.6355 68.0513 29.6075 68.0033 29.5515C67.9553 29.5035 67.9313 29.4395 67.9313 29.3595V28.9515C67.9313 28.8715 67.9553 28.8035 68.0033 28.7475C68.0513 28.6995 68.1193 28.6755 68.2073 28.6755H68.5193C68.7033 28.6755 68.8513 28.6395 68.9633 28.5675C69.0753 28.4955 69.1753 28.3715 69.2633 28.1955C69.3593 28.0275 69.4713 27.7955 69.5993 27.4995L72.2033 21.3195C72.2273 21.2555 72.2593 21.2075 72.2993 21.1755C72.3473 21.1355 72.4153 21.1155 72.5033 21.1155H73.0312C73.1033 21.1155 73.1633 21.1395 73.2113 21.1875C73.2593 21.2355 73.2833 21.2915 73.2833 21.3555C73.2833 21.3875 73.2793 21.4195 73.2713 21.4515C73.2633 21.4755 73.2473 21.5155 73.2233 21.5715L70.9433 26.9715C70.8233 27.2595 70.6913 27.5595 70.5473 27.8715C70.4113 28.1835 70.2553 28.4715 70.0793 28.7355C69.9113 29.0075 69.7113 29.2235 69.4793 29.3835C69.2473 29.5515 68.9753 29.6355 68.6633 29.6355H68.2073ZM69.8753 27.1755L67.4513 21.5715C67.4113 21.4755 67.3913 21.4075 67.3913 21.3675C67.3993 21.2955 67.4273 21.2355 67.4753 21.1875C67.5233 21.1395 67.5793 21.1155 67.6433 21.1155H68.2073C68.2953 21.1155 68.3593 21.1355 68.3993 21.1755C68.4473 21.2155 68.4833 21.2635 68.5073 21.3195L70.4993 26.0835L69.8753 27.1755ZM74.7695 27.3555C74.6895 27.3555 74.6215 27.3315 74.5655 27.2835C74.5175 27.2275 74.4935 27.1595 74.4935 27.0795V21.3915C74.4935 21.3115 74.5175 21.2475 74.5655 21.1995C74.6215 21.1435 74.6895 21.1155 74.7695 21.1155H79.5335C79.6135 21.1155 79.6775 21.1435 79.7255 21.1995C79.7815 21.2475 79.8095 21.3115 79.8095 21.3915V27.0795C79.8095 27.1595 79.7815 27.2275 79.7255 27.2835C79.6775 27.3315 79.6135 27.3555 79.5335 27.3555H78.9575C78.8775 27.3555 78.8135 27.3315 78.7655 27.2835C78.7175 27.2275 78.6935 27.1595 78.6935 27.0795V22.0755H75.6095V27.0795C75.6095 27.1595 75.5855 27.2275 75.5375 27.2835C75.4895 27.3315 75.4255 27.3555 75.3455 27.3555H74.7695ZM81.859 27.3555C81.787 27.3555 81.723 27.3315 81.667 27.2835C81.619 27.2275 81.595 27.1675 81.595 27.1035V21.3915C81.595 21.3115 81.619 21.2475 81.667 21.1995C81.723 21.1435 81.791 21.1155 81.871 21.1155H82.447C82.527 21.1155 82.591 21.1435 82.639 21.1995C82.687 21.2475 82.711 21.3115 82.711 21.3915V26.4795L82.399 26.1555L86.035 21.2955C86.075 21.2475 86.119 21.2075 86.167 21.1755C86.215 21.1355 86.275 21.1155 86.347 21.1155H86.899C86.963 21.1155 87.019 21.1395 87.067 21.1875C87.123 21.2355 87.151 21.2915 87.151 21.3555V27.0795C87.151 27.1595 87.123 27.2275 87.067 27.2835C87.019 27.3315 86.955 27.3555 86.875 27.3555H86.311C86.223 27.3555 86.155 27.3315 86.107 27.2835C86.059 27.2275 86.035 27.1595 86.035 27.0795V22.2915L86.371 22.2795L82.711 27.1755C82.679 27.2155 82.639 27.2555 82.591 27.2955C82.543 27.3355 82.479 27.3555 82.399 27.3555H81.859ZM90.8155 27.3555C90.7355 27.3555 90.6675 27.3315 90.6115 27.2835C90.5635 27.2275 90.5395 27.1595 90.5395 27.0795V22.0755H88.4515C88.3715 22.0755 88.3035 22.0515 88.2475 22.0035C88.1995 21.9475 88.1755 21.8795 88.1755 21.7995V21.3915C88.1755 21.3115 88.1995 21.2475 88.2475 21.1995C88.3035 21.1435 88.3715 21.1155 88.4515 21.1155H93.7315C93.8115 21.1155 93.8755 21.1435 93.9235 21.1995C93.9795 21.2475 94.0075 21.3115 94.0075 21.3915V21.7995C94.0075 21.8795 93.9795 21.9475 93.9235 22.0035C93.8755 22.0515 93.8115 22.0755 93.7315 22.0755H91.6435V27.0795C91.6435 27.1595 91.6195 27.2275 91.5715 27.2835C91.5235 27.3315 91.4555 27.3555 91.3675 27.3555H90.8155ZM95.3242 27.3555C95.2442 27.3555 95.1762 27.3315 95.1202 27.2835C95.0722 27.2275 95.0482 27.1595 95.0482 27.0795V21.3915C95.0482 21.3115 95.0722 21.2475 95.1202 21.1995C95.1762 21.1435 95.2442 21.1155 95.3242 21.1155H95.9002C95.9802 21.1155 96.0442 21.1435 96.0922 21.1995C96.1482 21.2475 96.1762 21.3115 96.1762 21.3915V23.1555H97.5202C98.3362 23.1555 98.9322 23.3475 99.3082 23.7315C99.6842 24.1155 99.8722 24.6355 99.8722 25.2915C99.8722 25.9955 99.6642 26.5155 99.2482 26.8515C98.8322 27.1875 98.2082 27.3555 97.3762 27.3555H95.3242ZM96.1642 26.4555H97.4242C97.9042 26.4555 98.2562 26.3715 98.4802 26.2035C98.7042 26.0275 98.8162 25.7235 98.8162 25.2915C98.8162 24.8755 98.7082 24.5675 98.4922 24.3675C98.2762 24.1595 97.9202 24.0555 97.4242 24.0555H96.1642V26.4555ZM101.252 27.3555C101.172 27.3555 101.104 27.3315 101.048 27.2835C101 27.2275 100.976 27.1595 100.976 27.0795V26.2155C100.976 26.1355 101 26.0715 101.048 26.0235C101.104 25.9675 101.172 25.9395 101.252 25.9395H102.116C102.196 25.9395 102.26 25.9675 102.308 26.0235C102.364 26.0715 102.392 26.1355 102.392 26.2155V27.0795C102.392 27.1595 102.364 27.2275 102.308 27.2835C102.26 27.3315 102.196 27.3555 102.116 27.3555H101.252ZM104.275 27.3555C104.195 27.3555 104.127 27.3315 104.071 27.2835C104.023 27.2275 103.999 27.1595 103.999 27.0795V26.2155C103.999 26.1355 104.023 26.0715 104.071 26.0235C104.127 25.9675 104.195 25.9395 104.275 25.9395H105.139C105.219 25.9395 105.283 25.9675 105.331 26.0235C105.387 26.0715 105.415 26.1355 105.415 26.2155V27.0795C105.415 27.1595 105.387 27.2275 105.331 27.2835C105.283 27.3315 105.219 27.3555 105.139 27.3555H104.275ZM107.299 27.3555C107.219 27.3555 107.151 27.3315 107.095 27.2835C107.047 27.2275 107.023 27.1595 107.023 27.0795V26.2155C107.023 26.1355 107.047 26.0715 107.095 26.0235C107.151 25.9675 107.219 25.9395 107.299 25.9395H108.163C108.243 25.9395 108.307 25.9675 108.355 26.0235C108.411 26.0715 108.439 26.1355 108.439 26.2155V27.0795C108.439 27.1595 108.411 27.2275 108.355 27.2835C108.307 27.3315 108.243 27.3555 108.163 27.3555H107.299Z" fill="#1F1814"/>
<path fill-rule="evenodd" clip-rule="evenodd" d="M379.245 26.6605C380.874 24.5682 380.727 21.5411 378.804 19.6176C376.721 17.5348 373.344 17.5348 371.261 19.6176C369.179 21.7004 369.179 25.0773 371.261 27.1601C373.185 29.0836 376.212 29.2307 378.304 27.6016C378.313 27.6118 378.323 27.6218 378.332 27.6315L381.161 30.4599C381.421 30.7203 381.843 30.7203 382.104 30.4599C382.364 30.1996 382.364 29.7775 382.104 29.5171L379.275 26.6887C379.265 26.6789 379.255 26.6696 379.245 26.6605ZM377.861 20.5604C379.423 22.1225 379.423 24.6552 377.861 26.2173C376.299 27.7794 373.766 27.7794 372.204 26.2173C370.642 24.6552 370.642 22.1225 372.204 20.5604C373.766 18.9984 376.299 18.9984 377.861 20.5604Z" fill="#1F1814"/>
</svg>

