<svg width="65" height="64" viewBox="0 0 65 64" fill="none" xmlns="http://www.w3.org/2000/svg">
<rect x="0.353516" width="64" height="64" rx="32" fill="#EAEDF5"/>
<g clip-path="url(#clip0_2_28861)">
<path d="M24.1035 40.25C24.1035 40.0511 24.1825 39.8603 24.3232 39.7197C24.4638 39.579 24.6546 39.5 24.8535 39.5H39.8535C40.0524 39.5 40.2432 39.579 40.3838 39.7197C40.5245 39.8603 40.6035 40.0511 40.6035 40.25C40.6035 40.4489 40.5245 40.6397 40.3838 40.7803C40.2432 40.921 40.0524 41 39.8535 41H24.8535C24.6546 41 24.4638 40.921 24.3232 40.7803C24.1825 40.6397 24.1035 40.4489 24.1035 40.25ZM41.34 24.5L41.376 24.5015C41.6563 24.5206 41.9303 24.5934 42.183 24.716C42.365 24.8007 42.5214 24.9322 42.636 25.097C42.7365 25.247 42.8535 25.5125 42.8535 26V34.9865L42.852 35.0225C42.8328 35.3027 42.76 35.5767 42.6375 35.8295C42.5527 36.0115 42.4213 36.1678 42.2565 36.2825C42.1065 36.383 41.841 36.5 41.3535 36.5H23.367L23.331 36.4985C23.0508 36.4793 22.7768 36.4065 22.524 36.284C22.342 36.1992 22.1857 36.0678 22.071 35.903C21.9705 35.753 21.8535 35.4875 21.8535 35V26.0135L21.855 25.9775C21.8741 25.6972 21.9469 25.4233 22.0695 25.1705C22.1543 24.9885 22.2857 24.8322 22.4505 24.7175C22.6005 24.617 22.866 24.5 23.3535 24.5H41.34ZM41.3535 23H23.3535C20.3535 23 20.3535 26 20.3535 26V35C20.3535 38 23.3535 38 23.3535 38H41.3535C44.3535 38 44.3535 35 44.3535 35V26C44.3535 23 41.3535 23 41.3535 23Z" fill="#2C4799"/>
</g>
<defs>
<clipPath id="clip0_2_28861">
<rect width="24" height="24" fill="white" transform="translate(20.3535 20)"/>
</clipPath>
</defs>
</svg>
